<svg width="26" height="20" viewBox="0 0 26 20" fill="#00397B" xmlns="http://www.w3.org/2000/svg">
<path d="M25.878 1.89607V10.6396C25.8759 10.9643 25.7454 11.2749 25.515 11.5035C25.2846 11.7322 24.973 11.8604 24.6484 11.8601H22.927V14.4558L20.3221 11.8601H18.537V6.76879C18.5371 6.36929 18.4584 5.97369 18.3055 5.60459C18.1527 5.23549 17.9286 4.90012 17.6461 4.61763C17.3636 4.33514 17.0283 4.11107 16.6592 3.95821C16.2901 3.80535 15.8945 3.7267 15.495 3.72675H9.82986V1.89607C9.82893 1.73511 9.85979 1.57554 9.92069 1.42654C9.98158 1.27753 10.0713 1.14202 10.1847 1.02778C10.2981 0.913538 10.4329 0.822814 10.5815 0.760817C10.73 0.698819 10.8894 0.666769 11.0503 0.666504H24.6484C24.974 0.668238 25.2857 0.798338 25.5159 1.02855C25.7461 1.25876 25.8762 1.5705 25.878 1.89607ZM16.7197 6.76788V15.5101C16.7196 15.8344 16.5906 16.1454 16.3613 16.3747C16.132 16.604 15.821 16.733 15.4967 16.7331H6.21091L3.61091 19.3332V16.7332H1.88961C1.5653 16.733 1.25433 16.6041 1.02501 16.3747C0.7957 16.1454 0.666797 15.8344 0.666626 15.5101V6.76788C0.666807 6.44358 0.795715 6.13262 1.02503 5.90331C1.25434 5.674 1.56531 5.5451 1.88961 5.54493H15.4967C15.821 5.54509 16.132 5.67398 16.3613 5.90329C16.5906 6.1326 16.7195 6.44357 16.7197 6.76788ZM5.13508 10.2282C4.89899 10.2364 4.67529 10.3359 4.51117 10.5058C4.34704 10.6757 4.2553 10.9027 4.2553 11.139C4.2553 11.3752 4.34704 11.6022 4.51117 11.7721C4.67529 11.942 4.89899 12.0416 5.13508 12.0498C5.37118 12.0416 5.59487 11.942 5.759 11.7721C5.92313 11.6022 6.01486 11.3752 6.01486 11.139C6.01486 10.9027 5.92313 10.6757 5.759 10.5058C5.59487 10.3359 5.37118 10.2364 5.13508 10.2282ZM8.69318 10.2282C8.45708 10.2364 8.23339 10.3359 8.06926 10.5058C7.90513 10.6757 7.8134 10.9027 7.8134 11.139C7.8134 11.3752 7.90513 11.6022 8.06926 11.7721C8.23339 11.942 8.45708 12.0416 8.69318 12.0498C8.92927 12.0416 9.15297 11.942 9.3171 11.7721C9.48123 11.6022 9.57296 11.3752 9.57297 11.139C9.57297 10.9027 9.48124 10.6757 9.31711 10.5058C9.15299 10.3359 8.92927 10.2364 8.69318 10.2282ZM12.2246 10.2282C11.9885 10.2364 11.7648 10.3359 11.6007 10.5058C11.4366 10.6757 11.3448 10.9027 11.3448 11.139C11.3448 11.3752 11.4366 11.6022 11.6007 11.7721C11.7648 11.942 11.9885 12.0416 12.2246 12.0498C12.4607 12.0416 12.6844 11.942 12.8485 11.7721C13.0126 11.6022 13.1044 11.3752 13.1044 11.139C13.1044 10.9027 13.0126 10.6757 12.8485 10.5058C12.6844 10.3359 12.4607 10.2364 12.2246 10.2282Z"/>
</svg>
