<svg width="1321" height="661" viewBox="0 0 1321 661" fill="none" xmlns="http://www.w3.org/2000/svg">
<path fill-rule="evenodd" clip-rule="evenodd" d="M1310 116.199C1316.08 116.199 1321 121.124 1321 127.199V651.5C1321 656.471 1316.97 660.5 1312 660.5H9C4.02942 660.5 0 656.471 0 651.5V9C0 4.02944 4.02942 0 9 0H326.498C330.429 0 334.061 2.09737 336.026 5.50179L396.734 110.697C398.699 114.102 402.331 116.199 406.261 116.199H1310Z" fill="#E9EFF8"/>
<path d="M1021.25 447.272L1036.2 430.469C1046.91 440.921 1057.5 446.743 1070.99 446.743C1083.56 446.743 1091.11 441.451 1091.11 433.115C1091.11 424.912 1085.28 419.884 1067.55 416.312C1037.78 410.225 1022.97 395.142 1022.97 372.384C1022.97 349.362 1042.68 332.426 1072.45 332.426C1103.41 332.426 1121.54 349.494 1125.9 375.692H1091.63C1089.78 366.827 1083.83 361.534 1074.3 361.534C1065.7 361.534 1058.56 365.901 1058.56 372.913C1058.56 380.19 1065.04 386.144 1080.39 389.32C1112.14 395.803 1126.7 410.357 1126.7 433.512C1126.7 457.725 1106.45 475.852 1072.45 475.852C1051.94 475.852 1035.27 465.928 1021.25 447.272Z" fill="#353B42"/>
<path d="M1001.38 364.578C983.913 364.578 969.359 378.735 969.359 400.037V472.676H932.973V335.601H969.359V352.405C978.091 340.762 990.264 332.426 1006.01 332.426C1010.64 332.426 1015.27 333.617 1018.45 335.337L1015.93 367.224C1011.3 365.636 1006.01 364.578 1001.38 364.578Z" fill="#353B42"/>
<path d="M764.763 404.139C764.763 364.048 792.681 332.426 830.919 332.426C850.104 332.426 865.585 339.835 876.566 352.008V335.601H912.555V472.676H876.566V456.27C865.585 468.442 850.104 475.852 830.919 475.852C792.681 475.852 764.763 444.229 764.763 404.139ZM801.281 404.139C801.281 426.5 817.688 443.7 838.725 443.7C859.895 443.7 876.566 426.5 876.566 404.139C876.566 381.91 859.895 364.578 838.725 364.578C817.688 364.578 801.281 381.91 801.281 404.139Z" fill="#353B42"/>
<path d="M640.706 472.675V287.439H756.082V319.458H678.283V363.651H749.731V395.405H678.283V440.656H758.463V472.675H640.706Z" fill="#353B42"/>
<path d="M511.484 335.601H548.002L559.778 381.447L571.553 427.293L595.502 335.601H632.681L591.136 472.676H553.559L529.743 383.497L505.927 472.676H468.35L426.804 335.601H463.984L487.932 427.293L511.484 335.601Z" fill="#353B42"/>
<path d="M273.676 404.139C273.676 364.048 301.594 332.426 339.832 332.426C359.017 332.426 374.498 339.835 385.48 352.008V335.601H421.468V472.676H385.48V456.27C374.498 468.442 359.017 475.852 339.832 475.852C301.594 475.852 273.676 444.229 273.676 404.139ZM310.194 404.139C310.194 426.5 326.601 443.7 347.639 443.7C368.808 443.7 385.48 426.5 385.48 404.139C385.48 381.91 368.808 364.578 347.639 364.578C326.601 364.578 310.194 381.91 310.194 404.139Z" fill="#353B42"/>
<path d="M165.125 472.676V287.439H202.702V440.259H277.59V472.676H165.125Z" fill="#353B42"/>
<circle cx="1192.57" cy="440.332" r="30.5787" fill="#0153CD"/>
</svg>
