<svg width="19" height="20" viewBox="0 0 19 20" fill="#00397B" xmlns="http://www.w3.org/2000/svg">
<path d="M18.0464 0.666992H11.0437C10.6087 0.666992 10.2565 1.0192 10.2565 1.45427V8.45692C10.2565 8.89199 10.6087 9.2442 11.0437 9.2442H18.0464C18.4815 9.2442 18.8337 8.89199 18.8337 8.45692V1.45427C18.813 1.0192 18.4608 0.666992 18.0464 0.666992Z"/>
<path d="M7.93583 0.666992H0.953906C0.51883 0.666992 0.166626 1.0192 0.166626 1.45427V8.45692C0.166626 8.89199 0.51883 9.2442 0.953906 9.2442H7.95655C8.39163 9.2442 8.74383 8.89199 8.74383 8.45692V1.45427C8.72311 1.0192 8.37091 0.666992 7.93583 0.666992Z"/>
<path d="M18.0464 10.7769H11.0437C10.6087 10.7769 10.2565 11.1291 10.2565 11.5641V18.5668C10.2565 19.0019 10.6087 19.3541 11.0437 19.3541H18.0464C18.4815 19.3541 18.8337 19.0019 18.8337 18.5668V11.5434C18.813 11.1083 18.4608 10.7769 18.0464 10.7769Z"/>
<path d="M7.93583 10.7769H0.953906C0.51883 10.7769 0.166626 11.1291 0.166626 11.5641V18.5668C0.166626 18.9604 0.51883 19.3126 0.953906 19.3126H7.95655C8.39163 19.3126 8.74383 18.9604 8.74383 18.5253V11.5434C8.72311 11.1083 8.37091 10.7769 7.93583 10.7769Z"/>
</svg>
