<svg width="43" height="48" viewBox="0 0 43 48" fill="none" xmlns="http://www.w3.org/2000/svg">
<path fill-rule="evenodd" clip-rule="evenodd" d="M7.80479 0L24.887 0.147045C29.0102 0.220568 32.3236 3.60261 32.25 7.71987L32.1763 14.8516C32.1027 19.0423 28.7157 22.3509 24.5924 22.2773L13.9161 22.2038C8.68229 22.1464 5.24553 24.7806 2.86885 26.6022C2.20289 27.1127 1.62016 27.5593 1.10445 27.8651C0.957191 28.0121 0.589041 28.0856 0.368151 27.9386C0.14726 27.7915 0 27.571 0 27.2769L0.22089 7.42578C0.22089 3.30852 3.60787 0 7.73116 0H7.80479ZM33.0598 18.087C38.7293 19.2634 42.9998 24.2629 42.9998 30.2917C42.9998 34.8501 40.4964 39.0409 36.5204 41.2466L38.582 46.0256C38.7293 46.3197 38.6557 46.6873 38.3612 46.9078C38.1403 47.1284 37.7721 47.1284 37.4776 46.9078L32.029 42.6435C28.5684 43.0847 25.0341 41.9818 22.3834 39.7026C19.5855 37.3499 18.0393 33.8943 18.0393 30.2917C18.0393 28.0125 18.7019 25.7333 19.88 23.7482L24.666 23.8218C28.4947 23.8218 31.7344 21.469 33.0598 18.087Z" fill="#E6E6E6"/>
</svg>
