<svg width="303" height="341" viewBox="0 0 303 341" fill="none" xmlns="http://www.w3.org/2000/svg">
<path d="M28.4855 145.329L30.4967 144.658L32.5078 145.329H38.3177L40.5523 144.658L41.6696 146.224L43.4573 147.566H49.7142L50.3846 148.237V150.026L49.7142 151.816L51.0549 152.934H52.6192V154.724L53.513 156.066L53.9599 156.961L56.418 158.526L58.4291 160.092L59.9933 160.987L61.3341 162.776L62.2279 163.224V163.671L62.4514 163.895M62.4514 163.895H65.1329L66.9206 162.553V161.211H66.0267L65.1329 160.316V159.421L66.0267 158.526L68.4848 158.079L69.1552 156.737V151.368L67.5909 150.25V146L68.4848 142.868L69.6021 142.421L71.1663 141.079L72.0601 141.973L71.6132 142.868L73.4009 143.987H76.3059L77.8701 144.881L79.4343 146.671L77.8701 147.118V152.039L75.412 152.487V154.276H79.6578V152.487L80.7751 152.039L81.222 150.921V149.579H85.6912L87.0319 150.921L89.0431 151.145V147.566H89.9369L90.6073 146L91.2777 144.881L89.0431 144.658L88.5961 142.868L89.0431 141.526V140.408L90.6073 139.737H94.853V136.158H93.7357L92.395 137.052H87.9258L86.585 136.158L85.6912 135.263L85.2442 133.473L85.6912 131.46L86.585 131.013L87.9258 129.671L89.0431 128.776L89.9369 128.105L91.2777 126.986L92.395 126.539L93.7357 125.197H95.5234L97.3111 123.855H98.4284L99.5457 122.512H100.216L102.451 120.723V119.157M62.4514 163.895L64.0156 166.579L63.3452 168.145H62.4514L61.1106 168.816L60.4402 169.711V176.198M57.9822 81.5774H55.9711L53.9599 82.2485L51.2784 84.9328V86.2749L50.3846 88.7355L49.0438 90.7487L48.15 93.2092L47.0327 94.5514L45.245 95.4461L43.2339 97.012L41.4462 98.1304L40.5523 100.144L39.2116 103.275H38.5412L37.4239 105.288L36.5301 107.973H29.6028L28.0386 109.539H25.5805L24.9102 107.973L23.1225 105.96L21.5583 105.288L20.2175 106.854L18.6533 107.973L17.6206 110.21L17.0891 111.552L15.078 113.118L13.7372 115.578L12.173 116.92V120.276L12.8434 121.394L14.631 122.512H17.0891L18.6533 123.184V131.013L20.2175 133.026L23.1225 133.697H24.2398V137.5L26.9213 140.631V141.75L28.0386 143.987V147.118L26.9213 149.131L25.5805 149.803H23.1225V148.013H22.4521L21.5583 149.131H20.2175L18.2064 149.803L17.0891 150.697H15.078L13.7372 150.474L12.5692 149.131H4.4869L3.90497 150.474V152.71L3.1672 154.574L1 155.395V157.184L1.89384 159.645L3.2346 160.763L5.02227 162.553L6.58649 164.342L8.59762 165.237H9.93838L12.173 166.579H13.7372L15.9718 165.237L18.2064 164.342H20.2175L20.8879 163.671L22.4521 163.224H23.1225L22.4521 164.342L21.5583 165.237L20.2175 167.921L18.2064 169.263L17.0891 169.935L14.631 170.158H12.8434L11.5026 171.053H9.93838L8.59762 169.935L7.25687 171.053V173.066L7.70379 174.185L9.268 176.198L9.93838 177.093L11.5026 177.764L12.173 179.329L13.7372 180.112L15.9718 182.685L17.0891 183.58L18.6533 184.474L20.2175 186.04L21.5583 186.711L23.1225 188.053L24.2398 188.948L25.5805 189.619H28.0386L30.7201 188.948L32.2843 188.053L34.2955 186.711L36.5301 186.04L38.5412 184.922L40.3289 183.58L41.2227 181.566V179.329L40.3289 177.764V176.198H41.8931V173.514H43.9042L43.2339 174.185V176.198H45.0215L44.5746 177.093V179.329L47.0327 180.112M57.9822 81.5774V77.551L60.4402 74.4194L64.0156 71.2877L65.3563 69.9456V65.2481L64.0156 62.1165L65.3563 60.5507L66.9206 58.5375L69.1552 56.9717L71.8367 55.8532L73.1774 54.5111M57.9822 81.5774L58.2056 81.8011L60.2168 83.1433H62.8983M73.1774 54.5111L71.8367 53.1689M73.1774 54.5111L72.954 54.2874M71.8367 53.1689H67.8144L66.2502 52.4979V49.3662H64.0156V48.2478L62.6748 46.2346L60.4402 44.4451L59.0995 42.6556L60.4402 41.5371V38.1818H59.0995V35.7212L60.4402 34.8265L61.3341 33.2606H57.9822V31.2474H59.0995V29.2342H56.8649V26.3263H59.0995V24.9653H60.4402L61.3341 23.009H64.0156L64.2391 21.0526L62.8983 19.3408H61.3341V17.8735L58.2056 16.8954L56.8649 14.4499H53.9599L51.2784 12.4936L52.076 9.3145L53.9599 7.60269H55.2551L56.8649 4.9127V3.44544H62.8983V1.73363H69.1552L71.1663 1H72.954L74.7416 1.73363H75.6355L78.0935 1H78.7639L79.2108 3.44544L80.9985 4.9127L82.7862 7.60269H84.5739L86.3615 9.3145L89.0431 11.0263L90.6073 12.4936L91.5011 14.4499L93.0653 15.4281L95.7468 16.1617L96.8641 17.8735V19.3408H102.004L104.462 17.8735L108.037 15.4281L109.825 13.7163L111.166 12.4936H114.294L115.411 14.4499L117.199 16.1617L118.987 16.8954H120.998V17.8735L122.785 19.3408V21.0526L122.115 23.9871L121.892 26.3263L120.998 27.221L120.774 27.8998L118.347 28.1444V29.2342L117.858 29.8562H116.305V32.1422L115.411 34.8265H110.719L111.166 36.7034V38.1818L110.719 39.7476V41.5371L113.177 42.6556H115.411V50.261L114.294 52.4979H113.177L111.836 53.1689H108.931V50.261L107.143 52.4979L106.249 51.6031L104.139 50.3355M71.8367 53.1689L72.954 54.2874M109.825 66.814L109.378 66.1429L108.261 65.4718L108.707 64.5771L109.378 62.7876L108.707 62.1165L108.037 61.2217L108.261 60.327L108.707 58.9848L108.261 58.0901L106.696 56.5243L106.249 55.1821V53.1689L104.015 50.261L104.139 50.3355M109.825 66.814H110.495L112.283 65.0245L112.73 65.6955L113.4 67.485L114.517 68.6035L115.858 70.1693L117.199 71.2877H120.998L121.892 71.7351L122.785 73.3009L123.679 73.972L124.797 75.7615L128.372 77.1036L129.936 78.2221L131.053 79.3405L131.277 80.2353L129.936 81.5774L128.595 82.4722L127.925 83.3669L126.584 84.7091L125.914 85.8275V87.3933L125.467 88.7355L124.797 89.8539V91.8671L124.35 92.9856L122.785 94.5514V97.012M109.825 66.814L110.272 67.2613M122.785 97.012L124.797 98.3541L126.584 99.0252H128.372L129.936 99.9199L131.724 101.933L134.182 103.275L135.97 104.841L137.087 105.736L138.651 106.631L139.992 107.078L141.78 107.749H144.461L145.802 109.762H149.824L150.494 110.881V112.67H155.187L156.081 114.236L156.751 113.341V112.67H158.986L159.88 113.341H161.556M122.785 97.012L122.115 97.2356L120.774 96.5646H118.987L117.199 95.8935H116.305L114.964 95.2224L113.4 93.6566L112.059 93.4329L110.048 92.0908L109.378 90.9724L110.048 89.4065L108.931 88.7355L107.59 87.617L106.473 86.7223L105.579 85.6038L104.909 83.3669L102.898 82.9196V85.6038L102.004 86.7223H99.7691L98.6518 85.6038L99.0987 82.9196V82.2485L99.7691 80.6827V79.5642L98.6518 78.6695L97.3111 77.9984M205.912 122.96L204.572 124.526H203.678V124.973H199.209L198.315 125.42L196.527 124.973L195.186 124.526L194.516 122.96H193.399L192.505 124.526H191.388L189.376 122.96H188.259L186.248 122.289L184.237 121.841L183.79 122.289L182.896 122.96L181.108 122.289V120.499L179.991 119.605L179.097 120.499L177.757 120.947H175.745V120.499L173.958 119.605L173.511 118.71H172.393L170.159 117.591L169.489 116.026V114.46H168.595L166.36 113.341L165.466 112.67H164.349L163.232 113.341H161.556M205.912 122.96L206.367 120.947V118.71L205.115 117.368L204.572 115.354M205.912 122.96L206.728 122.512L207.253 123.363L207.924 124.526L207.253 125.868M204.572 115.354L205.115 114.236V111.552L205.912 110.21V109.315L206.367 107.302H207.477L208.594 106.631L210.382 105.96H213.51V108.644L214.404 109.315L213.957 111.104V114.46L213.51 115.354M204.572 115.354L206.367 116.747H209.271L210.382 115.983L212.84 115.729L213.51 115.354M213.51 115.354L213.957 117.368L215.298 118.71V119.605H219.99L221.555 120.947M221.555 120.947H226.471M221.555 120.947H223.789M226.471 120.947L228.035 119.605H229.599L231.387 120.499H242.783L244.571 119.605H247.029M226.471 120.947H223.789M247.029 119.605V112.67H243.677L242.783 111.104L243.677 108.644L245.241 109.315H247.029L248.37 108.644H249.71L252.615 108.196L253.956 106.631V104.841H255.074L256.861 102.828V101.933H258.425V100.815L260.66 99.4725L261.554 98.8015H263.341L265.576 97.9067L266.023 97.4593L268.034 97.012L269.375 95.6698L271.386 94.3277V91.6434L272.95 91.1961L275.632 91.6434L276.526 92.7619H278.09L279.431 93.4329L281.218 93.8803L282.336 92.7619L283.9 92.3145L285.017 91.1961L285.911 90.7487L286.358 90.3013H289.933L290.38 90.7487H291.274L291.721 91.1961L291.274 92.7619L291.721 93.4329L293.285 94.7751L293.732 95.6698L294.179 97.012V97.9067L293.509 99.2488L293.285 99.9199L295.073 99.2488L295.743 99.4725L296.637 100.367L297.531 100.815L297.754 102.157H299.318L300.212 101.933L301.553 102.828L302 103.946V107.078L300.436 108.196L299.542 108.644L298.201 109.762L297.531 110.881L297.754 112.67L298.201 113.789L299.542 114.907V117.144H298.648L297.531 116.026L296.637 115.578L295.743 114.907L294.626 114.46L292.615 114.907H290.827L288.816 115.578L285.241 119.157L283.453 120.723L281.218 121.618L279.431 122.736L278.984 124.078L278.313 125.197L278.76 126.539L279.431 128.328L280.101 129.447L278.984 131.013L277.866 131.684V133.25L276.973 133.697L276.079 134.592L275.408 135.71L274.738 135.934L274.068 136.437M247.029 119.605L249.04 118.486H251.498L252.839 117.591H255.297L257.308 118.486H263.565L264.012 118.039L265.8 117.591L266.47 115.802L267.364 114.907L267.811 113.341L270.269 111.552H272.056L273.397 109.762H274.961L275.408 109.091L278.09 108.644L279.207 107.973H281.218L282.782 107.525L283.453 106.183H286.581L287.699 106.854L287.252 107.973L286.581 109.762V111.552L287.252 113.341V114.907H285.464L283.453 115.354L282.782 115.802L282.112 116.473L281.218 116.92L280.324 118.486M261.554 153.158H262.671L264.459 153.382H266.023L266.917 153.829H269.375L270.045 152.263V150.921L270.939 149.355L271.386 147.342L272.056 146.224L272.727 145.329L273.397 144.658L273.844 143.763L274.738 142.645L275.185 140.855V140.408L274.068 139.513L273.397 138.842L273.844 136.605L274.068 136.437M261.554 153.158L261.107 153.829V157.408L261.554 159.421V163L261.107 163.671L259.766 164.119L258.872 165.237L258.425 166.132V169.487L258.872 170.829V172.842L256.861 174.632L256.414 175.75L255.297 175.079L254.403 174.632H253.509L253.286 175.303H252.615V172.842L252.392 170.606H252.169V168.145L251.498 166.803L250.828 165.237L250.381 163.671V160.316L249.934 159.645L249.264 157.408L248.817 156.737M261.554 153.158L260.66 152.71V151.816H257.308V148.46M248.817 156.737H247.252M248.817 156.737H248.593M247.252 156.737L246.359 157.408L245.688 158.526V160.316H244.794L244.571 162.105V164.119H241.889L241.442 163.448L240.325 162.105L239.878 161.882L239.655 160.316L238.314 158.974L238.091 157.184V154.724L238.761 153.829L240.325 152.71L241.219 152.263L242.56 151.368L243.454 151.145L245.688 150.026V149.355L246.359 148.46L247.699 147.789L248.37 146.224L248.817 144.881V143.539L249.264 142.868H250.381L251.498 142.645V141.973L250.381 141.302L250.207 141.253M247.252 156.737H248.593M222.448 128.105L223.566 129.671L224.013 130.789V132.578L224.46 133.473L225.353 133.831M222.448 128.105H221.555M222.448 128.105H222.225M221.555 128.105L221.108 130.118H220.661L219.32 129.671L217.756 128.552L216.415 127.434M221.555 128.105H222.225M212.576 125.868H210.158L207.924 128.105L206.367 129.671V130.789L207.924 132.131L208.817 132.578L209.711 134.592L211.275 136.158L212.84 135.934L214.18 137.052L215.298 138.394L215.074 139.289H212.84L210.605 139.737L209.264 140.631V141.526L205.912 143.763V145.552L206.367 146.671L207.477 147.789L208.37 148.237L209.264 148.908H212.393V151.368L212.84 152.487V153.382L211.722 154.276L210.605 154.947V156.066L211.275 157.632L211.722 158.079L212.84 158.75V160.763L215.074 163L214.18 165.237V166.803L215.074 168.369L215.298 170.606V172.171L216.192 174.185V175.079L214.627 175.527L216.192 177.093V180.895L214.627 180.001H211.722V177.093L210.605 180.001H208.817L207.477 178.882L206.367 177.093V175.527L207.477 174.185L205.912 173.29L205.242 172.171L204.572 170.606L204.348 171.277L204.572 172.171L205.465 173.514L205.689 174.408V175.303L205.019 176.422L204.125 177.54L202.337 178.435L200.773 179.329M200.773 179.329L199.209 179.777M200.773 179.329L200.102 179.521M199.209 179.777L197.421 180.001L195.633 180.895L194.739 181.79V182.685L193.399 183.803V186.711L194.069 188.053L194.739 190.067L194.069 191.856L192.952 192.303V194.093L190.717 194.988L189.823 196.106L188.929 197.896L188.259 198.567L187.812 197.896L186.918 197.672L186.471 197.001L186.025 196.777L186.471 198.79V199.461H185.131L183.79 199.909L182.002 199.685H181.108L179.544 198.79H177.757L176.863 199.685L175.969 200.804V201.922L175.522 202.593L175.075 204.383L173.734 205.725L172.617 207.291M199.209 179.777L200.102 179.521M172.617 207.291L171.5 208.409L170.159 210.422L168.818 212.212L166.137 214.896L164.572 215.791L163.679 216.685H162.785L161.667 217.804L159.88 218.922L159.209 220.041L157.869 221.607L156.751 222.278L156.081 223.62L154.293 225.409L153.176 226.08L151.388 226.975L148.036 228.094L146.249 229.212V234.804L145.802 235.475L144.238 236.37L142.673 237.041L140.886 237.712H134.182V240.173L133.512 241.291V242.41L131.947 243.752L131.053 244.199H130.383L129.713 243.304H127.702L126.137 244.199L125.02 245.765L123.679 247.778V248.449L122.562 250.239V255.831L123.679 258.292V260.081L123.232 261.2L123.679 263.66L125.02 266.792V268.134M172.617 207.291L170.159 207.067L168.818 208.409H167.254V210.646H163.679L161.667 210.422L160.774 209.304L159.88 208.409L159.209 207.291H156.751L156.081 208.409V211.317H154.293V215.343H151.388V216.014L148.036 216.238V215.343H147.143V214.001H146.249L145.802 214.896V219.37L144.238 218.922L142.673 220.041H141.556L139.545 220.936V221.607L137.31 221.83M125.02 268.134L123.679 269.252L121.668 268.805L120.774 269.923L119.657 271.266H114.741L113.624 273.055L111.836 273.502H109.154L107.814 274.174L107.143 275.963L106.249 277.082L105.132 277.305H104.015L102.898 276.41M125.02 268.134V272.608L124.35 274.845V277.082L123.679 278.424L123.232 280.437L122.562 281.108L121.668 282.226L120.774 282.897L119.657 284.911H118.316V286.476L119.21 287.147V290.95L118.316 291.621L119.657 292.74V302.135L119.21 302.582H115.635L114.741 303.253L114.071 304.148V306.832L112.73 307.279L111.389 309.293L110.719 310.635L111.389 312.424L112.73 312.872H115.635L116.082 314.438L114.741 313.766H110.048L107.814 314.438L107.143 315.109L105.579 315.78H104.462L102.898 317.793V321.148L102.004 322.49L100.216 323.832L98.4284 324.951L97.3111 325.398L96.1938 326.069H93.5123L91.7246 324.28M91.7246 324.28L91.0542 323.832L90.1604 322.938L89.49 322.043L88.5961 320.701H87.9258L87.2554 318.464L86.8085 317.793L85.2442 315.78L84.5739 315.109V312.872L83.9035 311.306V310.635H84.5739L83.9035 307.279V306.385L83.0097 305.49L82.3393 303.253L80.9985 301.016V300.345L80.1047 297.885L78.9874 297.214L78.317 295.2V293.858L76.3059 290.503L75.6355 289.161L74.7416 287.147H74.0713L72.507 284.911L71.8367 283.345L70.7194 281.332L69.6021 279.542L68.9317 278.2L68.4848 276.41M91.7246 324.28L93.0653 322.49V320.701L92.6184 319.582V318.464L91.948 316.898L92.8419 315.109L93.0653 313.766L94.6295 313.095L95.0765 311.306H93.5123L93.0653 309.293V304.148L92.6184 302.582H91.948L90.6073 303.253L89.49 302.582L88.5961 301.016V299.227L87.9258 297.214V295.2L87.2554 293.858L85.6912 293.411L85.2442 291.621H83.9035L83.0097 289.832L84.5739 288.713L83.9035 287.147M68.4848 276.41L67.8144 274.845H67.144V271.266L66.6971 269.252V267.463L66.0267 265.897V265.226L64.4625 263.884V260.528L63.1218 260.081V258.068L62.4514 257.173L62.0045 256.502L61.1106 255.384L60.2168 254.936L59.9626 254.478M68.4848 276.41L70.2725 277.529L71.8367 278.424L72.7305 279.989L74.0713 281.108L75.6355 282.897L77.4232 283.792L78.317 284.911L80.1047 285.582L81.6689 286.476H83.0097L83.9035 287.147M56.8649 246.436V248.002H57.7587V248.673L58.4291 250.463L59.0995 251.357V252.923L59.9626 254.478M56.8649 246.436L55.9711 244.87L54.4068 243.081V240.396L53.513 239.502L52.8426 237.712V235.252L52.1722 233.462V232.12L51.5019 229.436V228.094L50.8315 226.528V224.962L49.9376 223.172V221.83L49.0438 220.265V218.922L47.9265 216.462V213.554L46.8092 212.435V203.712L46.1388 202.593L45.0215 200.58V197.001M56.8649 246.436L57.5353 246.212L58.4291 245.094H61.781M45.0215 197.001L46.1388 194.317L46.8092 191.185L47.9265 189.619L46.8092 188.053L46.1388 186.04L45.0215 184.922V181.566L46.1388 180.672L47.0327 180.112M45.0215 197.001H46.8092L47.0327 195.211L48.3734 194.764L49.9376 195.882H52.3957V192.303H53.0661V190.514L54.4068 191.185H56.1945L57.3118 190.514V186.04L54.4068 184.922L54.8538 184.474H56.1945L58.4291 182.685L59.3229 181.566L60.6637 180.672M47.0327 180.112L47.9265 179.553M83.9035 287.147H85.6912L87.2554 288.713H88.5961L89.49 287.147L91.0542 286.476H94.6295L95.5234 285.358H97.5345L97.758 284.24V282.897L95.5234 282.226V281.108L96.1938 279.989V277.529H97.5345L98.2049 275.963L98.8753 275.292H100.216L101.557 275.516L102.898 276.41M102.898 276.41L104.015 275.292L105.579 274.845V273.055L107.143 271.266V270.595H105.132V268.805L104.462 267.463H102.898L102.004 266.792L101.557 265.897L101.11 264.555H100.216L99.3222 264.331L98.2049 264.555L95.5234 265.897L94.6295 265.226L93.5123 264.331L93.0653 264.779L91.948 266.121H90.6073L90.1604 265.226V263.884L89.49 262.989L89.7134 262.173L90.6073 261.527L91.5011 261.647L91.6921 262.418L91.948 262.989H93.5123H94.4061V260.305L93.0653 259.857H91.5011L89.7134 260.305L89.3064 261.527M89.2665 261.647L89.3064 261.527M95.9703 216.014L96.1938 216.909V220.936L95.9703 221.607L95.5234 223.62L96.8641 224.738L96.1938 225.409V226.08L94.6295 226.975L94.4061 228.094L94.6295 229.212V233.015L94.4061 235.475H93.5123V237.041H94.4061L95.9703 237.712V239.725L95.5234 241.291L94.4061 241.739H91.948L91.5011 242.186V245.541L90.6073 246.883V248.449L91.5011 249.568L91.948 251.134L90.6073 251.805H87.9258L88.1492 253.147L88.8196 254.042L88.1492 254.936L87.7023 255.384V256.726L88.1492 257.397L88.8196 258.739H89.2665V260.081L89.3064 261.527M95.9703 216.014H94.6295L94.4061 215.343L93.9592 214.896L93.0653 215.343L91.948 216.909L90.6073 217.804H89.2665L88.8196 218.922V220.936H87.7023L87.0319 222.725H84.127L83.4566 224.738V226.528H82.3393L80.3281 226.08L79.4343 226.528L78.0935 226.08L76.5293 225.409H75.8589L75.1886 226.975L75.8589 228.094V230.554H72.0601L71.3898 231.896H70.2725L69.3786 231.225L68.0379 231.896L67.5909 233.462L65.8033 233.91V235.475L64.4625 235.028H63.1218L62.0045 235.475V237.041L63.1218 238.607H64.4625V241.291L63.5687 242.186L61.781 245.094M95.9703 216.014L96.1938 214.449L97.3111 214.001L98.2049 213.106L98.8753 212.212L99.9926 211.317V210.646L98.8753 209.304L98.2049 208.409L99.5457 205.725L99.9926 205.277L101.333 205.725L102.227 205.948L103.344 205.277V204.159L104.015 202.817L104.462 201.698V199.238L106.249 199.685H108.931L109.825 200.804L110.495 202.146H111.836L112.283 201.698H114.071L114.294 202.369L115.858 202.817L116.976 203.264H118.54V202.146H119.657L120.104 202.817L120.774 203.712L121.221 205.054L120.774 205.277V208.409L121.221 209.527V211.317L122.339 212.212H123.679M61.781 245.094L62.0045 246.212V252.923L61.781 253.147L60.8872 253.37L59.9626 254.478M123.679 212.212L124.685 212.659M123.679 212.212L124.573 212.609M137.31 221.83L136.193 221.607H132.618L131.947 220.936L131.277 219.37L130.607 218.028H129.489L128.595 216.238V214.896L128.148 214.449L126.808 213.554L125.69 213.106L124.685 212.659M137.31 221.83V218.699L138.204 217.133L140.215 216.014L141.556 214.225L143.12 212.435L144.014 211.093V205.725L143.12 203.488V202.369L141.556 200.356L140.886 199.014V197.896L142.45 196.777L144.908 197.896L146.696 199.014L149.154 200.356L150.718 199.014L150.048 196.777H146.696V187.159H147.589L149.154 185.145H154.74C154.368 185.071 153.846 184.832 154.74 184.474C155.813 183.222 156.528 182.014 156.751 181.566L157.198 180.224L158.092 178.882L158.762 177.54V174.185L159.88 173.737L160.55 173.066L162.338 171.053L163.455 170.733M60.6637 180.672H61.3341M60.6637 180.672H58.4291L56.1945 179.553L56.6414 177.54L57.3118 177.093L59.3229 176.198H60.4402M124.573 212.609V208.856L125.69 208.185V205.725L126.137 204.159H127.031L127.702 205.277H129.713V202.593L128.819 201.698L127.702 200.356L126.137 199.238V197.896L127.478 197.001V195.882H126.137V194.317H128.148V192.303L126.137 191.185L127.031 189.619V189.172L126.808 188.053L125.69 186.04L128.148 183.58L127.831 182.944M124.573 212.609L124.685 212.659M150.494 154.276V154.947L148.93 155.395H142.45L141.333 154.276H139.098L138.651 157.184V158.75H141.333L142.226 159.421L142.897 159.869L143.567 160.092L144.684 160.987V162.329L143.567 163.224L141.333 165.461H139.992V168.145L138.651 168.592L137.534 169.487L137.087 170.606H134.852L133.958 171.053L133.288 172.395V173.29L132.394 174.856H131.277L130.607 175.75V177.987L129.713 178.882V182.237L127.925 182.908L127.831 182.944M150.494 154.276H154.74L156.081 152.039L156.751 151.145M150.494 154.276V145.552L148.93 144.658L146.919 144.881H145.802L144.684 143.763L143.567 142.868L141.78 142.421L139.992 141.526L138.651 140.408L137.534 139.737H134.852L133.288 141.526L132.394 142.421H130.607L130.16 141.526L130.607 139.737H127.925L126.361 140.408H125.02V137.723H121.668L121.221 138.394L120.104 139.065L118.987 140.408H116.082L114.517 139.065H111.612L110.719 138.618V136.158H109.601L108.261 137.052L106.92 137.723V140.408L108.261 142.421V143.763L108.931 145.552H109.601L110.719 147.566V149.579H109.601C109.154 150.026 107.992 150.653 106.92 149.579C105.847 148.505 104.834 147.789 104.462 147.566L103.568 147.118V143.763L102.898 142.868V141.526H103.568L104.462 140.408V138.394L103.568 137.723V136.158L104.462 135.263H106.249L106.92 133.697H108.261L108.931 132.131L109.601 131.013L110.719 128.776V126.986L111.836 126.539V123.855L109.601 121.17L107.367 120.723H106.249L103.568 119.605L102.451 119.157M156.751 151.145H157.869L158.762 152.039V153.605L159.88 154.947L161.667 157.184V158.079H163.008V160.092L163.455 161.658L164.572 163.224L166.137 164.342H167.03V166.579L165.243 167.027L164.572 167.474L163.455 168.145V170.733M156.751 151.145L157.198 149.579L157.869 148.46L157.198 147.342V146.671H158.316L158.762 144.881L157.869 143.763L156.528 142.868L156.081 141.079V139.96L157.198 138.394L158.316 137.5L159.88 136.829L162.114 135.486L163.232 134.592L164.349 133.473H165.466L166.807 133.921L169.042 133.473L170.159 132.578L168.595 131.013L167.03 130.789L165.466 129.671L164.349 128.552L164.125 127.657L163.679 126.763H165.019V125.644L164.125 124.526L162.785 123.855L164.349 122.289H166.807V120.052L165.019 118.71L163.679 117.591L162.785 116.026L161.667 114.236L161.556 113.341M102.451 119.157L100.216 118.486H99.0987L97.0876 119.828L95.0765 120.947L93.9592 120.276L95.0765 118.486L96.6407 117.144L95.7468 115.802V114.236L93.9592 112.446V110.433L92.6184 108.867M191.834 173.066L190.717 172.171L189.153 171.5L187.589 171.053L186.695 170.158L184.907 169.487L184.46 170.606V174.185L183.566 175.527L181.108 174.856L180.215 174.185H177.31C176.952 174.185 176.714 174.632 176.639 174.856H175.298L173.958 173.737L175.298 172.619V170.606H173.511L170.159 171.053L167.924 172.171L165.913 171.5L163.902 170.606L163.455 170.733M191.834 173.066L193.622 174.185L194.963 174.856L196.08 175.527L196.751 176.645L197.421 177.54H198.762L199.209 177.987L199.656 178.882L200.102 179.329V179.521M191.834 173.066L192.728 172.171V170.606L191.388 168.816L190.717 168.145L189.6 167.474L189.153 166.803L188.706 166.355V165.684L189.153 165.013V164.342H186.695L185.354 163.671L184.907 163.224L183.566 162.553V158.974L184.46 157.855H184.907L185.801 158.526H187.589L188.036 157.855L189.153 156.737H191.388L191.834 155.618L192.728 154.5L194.516 153.382L195.41 154.5L196.751 155.171L197.644 154.947V152.263H199.656L200.102 151.145H200.773L201.667 150.026V149.131L202.337 148.684V147.342L203.007 146.224H203.901V142.868L202.784 140.855V138.171M264.459 331.885L264.424 331.946M264.424 331.946L263.565 333.451L263.118 334.793L263.565 336.806V338.372L265.129 339.043V339.938H266.023L266.47 339.043H267.14V336.806L266.023 335.688V334.346L265.576 333.898L265.129 333.004L264.424 331.946ZM62.8983 83.1433L64.2391 84.9328L64.9094 87.3933V89.1828L65.8033 90.3013H67.3675V89.1828L68.7082 90.3013L71.1663 91.4197H74.0713V92.7619L74.7416 94.7751L75.6355 95.8935V97.9067L76.9762 99.6962L78.0935 101.486L79.2108 103.052L80.1047 104.17V107.525L81.6689 108.867L82.3393 106.407L84.127 105.736V104.17L86.3615 106.407L87.2554 105.736L87.9258 104.17L88.3727 103.946L89.2665 105.736V108.867L90.6073 110.433L92.6184 108.867M62.8983 83.1433L64.9094 83.5906L65.8033 83.1433H68.2613L69.6021 83.8143L70.9428 84.038L71.6132 86.0512L72.2836 87.1696L72.954 86.0512L74.5182 85.3801H80.1047L81.222 84.9328L82.1158 83.8143V82.2485L83.2331 81.13H84.5739L86.3615 80.459L87.7023 78.2221L89.0431 77.9984L89.2665 76.88L88.1492 74.6431L87.9258 72.8536L88.8196 71.9588M92.6184 108.867L93.7357 108.196H94.6295L95.5234 107.302L95.9703 105.512V103.946L95.0765 101.486L93.9592 100.367V97.9067C93.9592 97.5488 93.8102 97.3102 93.7357 97.2356L92.8419 96.1172L91.7246 95.2224C91.9033 94.8645 92.097 94.0294 92.1715 93.6566V89.8539L91.2777 89.1828M91.2088 89.1828V88.2881L91.2777 87.1696L91.5011 86.0512L92.6184 84.7091L93.0653 83.1433L93.7357 82.2485L95.0765 81.13C95.151 80.9064 95.3893 80.3695 95.7468 80.0116L96.8641 78.8932V77.7747L95.0765 77.3273H93.7357L92.8419 76.4326L92.1715 75.5378L91.7246 73.7483L90.6073 72.8536L88.8196 71.9588M88.8196 71.9588L87.2554 70.8404V68.8272L85.6912 66.5903H81.6689V63.4586L80.1047 61.2217V60.1033L78.0935 58.0901H76.9762V55.1821H78.0935L79.2108 53.1689L78.5405 51.6031H76.9762L75.6355 53.1689H74.0713L72.954 54.2874M60.4402 176.198H62.4514L63.5687 175.303V177.093L65.1329 178.882L67.3675 179.329L70.049 180.112L71.1663 181.566H72.507L75.1886 182.685H79.4343L80.5516 182.237L81.222 184.474L82.5627 185.593L83.4566 184.922H84.127L87.0319 184.474L87.7023 182.237L88.8196 180.672L89.2665 179.329L91.948 178.882H95.9703L96.1938 180.112L94.6295 181.566L98.2049 182.685H99.9926L102.227 182.237L103.344 180.672L104.462 180.112H106.249L106.92 180.672H108.037L110.495 180.112L113.177 179.329L114.294 178.882H115.858L116.305 178.658L117.422 180.001H118.54L119.657 179.553L120.104 180.112L122.339 180.672V179.553H124.797L126.137 181.343L127.478 182.237L127.831 182.944M78.7639 51.6031V47.1293C79.0619 47.2785 79.7471 47.4872 80.1047 47.1293C80.4622 46.7714 82.3393 45.1161 80.9985 46.2346C81.4454 45.7872 82.4287 44.8477 82.7862 44.6688L84.127 43.9977L84.3504 43.1029H85.4677C85.6912 43.1029 87.0319 42.6556 87.2554 43.1029C87.4342 43.4608 88.2237 44.2959 88.5961 44.6688C89.2665 44.8925 90.1604 45.3398 90.6073 45.5635M90.6073 45.5635C91.0542 45.7872 92.1715 46.9056 92.6184 47.1293C93.7357 47.353 94.6296 47.353 95.0765 47.353C95.5234 47.353 95.7468 47.1293 96.1938 47.1293C96.6407 47.1293 97.3111 46.2346 97.5345 46.2346C97.7133 46.2346 98.3539 46.3837 98.6518 46.4583L98.8753 46.682C99.5457 47.353 99.7691 48.0241 99.9926 48.2478C100.216 48.4715 100.44 49.3662 100.216 49.5899C100.663 50.261 101.333 50.4847 101.557 50.4847C101.736 50.4847 102.376 50.3355 102.674 50.261L103.791 49.8136L104.139 50.3355M90.6073 45.5635V44.6688L87.9258 41.5371L86.3615 40.6161H84.5739L85.6912 38.1818L84.5739 37.4371L83.2331 36.7034L82.1158 34.8265H80.9985V33.2606L79.2108 32.1422H78.0935L77.7531 30.5898V27.8998H82.8885L85.8231 26.4326L87.0458 25.6989H90.4694V24.2317L91.203 22.2753H92.6703L93.1594 21.0526V20.5635L92.6703 21.0526L91.203 18.1181L91.4476 17.629H92.6703L94.6267 18.1181L96.3385 19.0963H96.8276M104.238 50.4847L104.139 50.3355M158.539 146.671H162.561L163.455 145.776L164.572 146.671L165.913 147.566L167.701 148.237L168.371 149.803H169.935L171.276 147.566L172.17 146.671L173.064 148.684H174.181L174.852 148.237L176.192 147.566H179.321L180.885 146.671V143.987H183.566L185.354 145.329L186.025 146.671L187.142 147.566L188.259 149.131H188.929L189.823 148.237V147.566L190.494 145.776L192.281 146.224H193.622C194.516 146.224 194.888 145.627 194.963 145.329V141.973L196.527 140.855L198.762 139.065L199.432 138.171H202.784M202.784 138.171V136.158L204.795 135.486L205.912 134.592L205.465 133.473L203.901 132.355L203.454 131.907L202.784 131.013V130.118L203.901 129.447L204.795 128.776L206.359 127.657L207.253 125.42M212.393 125.868L213.734 126.315H214.627V124.973H215.745L216.415 125.868V127.657M97.2005 77.9984L97.5345 76.6563L98.2049 76.4326L98.6518 75.7615L98.2049 73.972V72.6299L98.8753 70.6167L99.9926 69.0508L101.557 67.9324L103.344 67.485L104.462 67.0377L105.803 67.485L107.367 68.1561L108.931 67.9324M108.931 67.9324L110.048 69.0508H111.166V68.1561L110.272 67.2613M108.931 67.9324L109.378 67.0377L110.272 67.2613M222.225 128.105L222.895 127.21H223.789V124.749L224.683 123.855V122.512L223.789 121.394V120.947M225.353 133.921V133.831M250.207 141.253L248.817 140.855L247.699 139.289H245.241C245.241 139.215 245.152 139.11 244.794 139.289C244.437 139.468 243.156 139.811 242.56 139.96H240.325L239.208 138.842H236.973L235.633 139.289H234.292L232.504 139.737H228.929L227.588 138.842H226.694L224.906 138.394L224.013 137.947L223.566 136.605L224.683 135.486V134.592L225.577 133.921L225.353 133.831M250.207 141.253L250.604 140.855C251.051 140.557 252.347 139.781 253.956 139.065C255.565 138.35 255.073 138.32 254.627 138.394V137.052H253.956L253.286 135.934L252.615 134.368L250.604 133.026C250.232 132.802 249.308 132.355 248.593 132.355V130.565C248.891 130.267 249.621 129.581 250.157 129.223C250.694 128.865 249.934 129.074 249.487 129.223H244.347L243.007 130.118L242.336 131.46H240.996L240.325 132.355H238.984L237.867 131.46L236.079 130.565H234.515L232.728 130.118H228.482C227.946 130.118 227.216 130.416 226.918 130.565L226.024 131.46L225.353 132.355V133.831M248.146 147.118L249.487 148.46L250.604 151.145M250.604 151.145L250.157 152.71V154.276L249.487 155.395L248.593 156.737M250.604 151.145L251.498 150.25L253.956 149.579L254.627 148.46L256.191 148.013L257.308 148.46M257.308 148.46V146.895L258.649 145.329V142.868L259.543 141.75L260.66 139.513L261.107 139.065M261.107 139.065L262.001 137.276V136.158L260.66 135.486L261.107 133.697L262.671 132.578L263.565 131.46L264.012 130.789L265.353 131.46C266.425 130.923 267.736 128.85 268.258 127.881L269.375 126.091L270.269 124.526L272.056 123.407H272.503L273.397 122.512L275.408 120.723L277.196 119.605L279.207 118.486H280.324M261.107 139.065H263.565L264.906 137.276V135.486L265.8 134.815H267.364L269.375 135.486H270.269L271.386 134.815L272.503 134.368H273.397L274.068 134.815V136.437M274.068 136.605V136.437M280.324 118.486V122.065M254.18 275.516L255.297 272.16V269.476L257.085 267.015L257.978 268.134V273.502L257.085 275.516V286.253L254.18 284.016V290.95L251.051 288.713L252.169 286.253V284.016L253.286 282.003V277.753L254.18 275.516ZM251.051 296.319H252.169L252.839 298.332L253.286 300.345H251.051V296.319ZM248.817 288.713V290.055L249.487 290.279L249.934 290.055V289.161L249.71 288.713H248.817ZM265.353 282.226L265.8 282.897L266.917 282.226L266.693 281.332L266.023 280.884H265.353V282.226ZM270.045 268.581V269.7L270.492 270.371H271.163V268.805L270.492 268.581H270.045ZM254.18 313.319V315.556L254.85 316.003H256.191L256.638 315.109V313.319H254.18ZM256.638 322.938V324.504L258.649 325.175L259.543 324.504L258.649 322.938H256.638ZM263.118 320.701L264.459 320.253V322.938H263.118V320.701ZM261.777 324.504H263.565V328.306H262.671V328.754L262.224 329.201H260.437L259.99 328.306V326.293H261.777V324.504ZM48.3734 323.161V325.175H49.7142L50.608 324.504V323.832L49.7142 323.161H48.3734ZM54.8538 304.819L55.3007 304.372V303.924H56.6414V305.266L55.9711 305.714H54.8538V304.819ZM55.3007 296.542V297.661L55.9711 298.108L56.418 297.885V296.542H55.3007ZM45.245 287.147V288.713L45.6919 288.937L46.8092 288.713L46.5857 287.371L45.6919 286.924L45.245 287.147ZM48.3734 289.384V290.727L49.0438 291.174L49.4907 290.727V289.608L48.3734 289.384ZM46.3623 291.398L46.1388 292.292L45.245 293.634V295.2L46.5857 295.424L47.2561 295.2V291.845L46.5857 291.398H46.3623ZM43.6808 297.214V298.108L45.0215 298.332L44.6922 297.214H43.6808ZM44.3512 299.45L44.6922 300.345H45.6919L45.245 299.45H44.3512ZM39.6585 296.095L39.882 298.332L40.9993 298.108L40.5523 296.095H39.6585Z" stroke="#C0D1EB"/>
</svg>
