<svg width="14" height="14" viewBox="0 0 14 14" fill="none" xmlns="http://www.w3.org/2000/svg">
<path d="M9.12002 9.82714L13.146 13.8541C13.1925 13.9006 13.2477 13.9375 13.3084 13.9627C13.3692 13.9878 13.4343 14.0008 13.5 14.0008C13.5658 14.0008 13.6309 13.9878 13.6916 13.9627C13.7523 13.9375 13.8075 13.9006 13.854 13.8541C13.9005 13.8077 13.9374 13.7525 13.9625 13.6917C13.9877 13.631 14.0007 13.5659 14.0007 13.5001C14.0007 13.4344 13.9877 13.3693 13.9625 13.3086C13.9374 13.2478 13.9005 13.1926 13.854 13.1461L0.854021 0.146143C0.807533 0.0996554 0.752344 0.0627791 0.691605 0.03762C0.630865 0.0124609 0.565765 -0.000488281 0.500021 -0.000488281C0.434277 -0.000488282 0.369177 0.0124609 0.308438 0.03762C0.247698 0.0627791 0.192509 0.0996554 0.146021 0.146143C0.0995334 0.192631 0.062657 0.247821 0.0374979 0.30856C0.0123388 0.369299 -0.000610352 0.434399 -0.000610352 0.500143C-0.000610351 0.565887 0.0123388 0.630987 0.0374979 0.691727C0.062657 0.752466 0.0995334 0.807655 0.146021 0.854143L3.37602 4.08414C2.9364 4.39557 2.54083 4.7649 2.20002 5.18214C1.71742 5.7743 1.33964 6.44463 1.08302 7.16414C1.06202 7.22514 1.03602 7.30914 1.03602 7.30914L1.01802 7.37114C1.01802 7.37114 0.942021 7.86814 1.37302 7.98214C1.50112 8.016 1.63741 7.99763 1.75198 7.93107C1.86654 7.86451 1.95 7.7552 1.98402 7.62714L1.98502 7.62414L1.99302 7.59914L2.02802 7.49014C2.24598 6.88267 2.56552 6.31662 2.97302 5.81614C3.29337 5.4224 3.67248 5.08039 4.09702 4.80214L5.67502 6.38014C5.35658 6.57973 5.08724 6.84854 4.88703 7.16658C4.68681 7.48462 4.56088 7.84371 4.51859 8.21714C4.4763 8.59057 4.51875 8.96873 4.64277 9.32349C4.76679 9.67825 4.9692 10.0005 5.23494 10.2662C5.50068 10.532 5.82292 10.7344 6.17768 10.8584C6.53244 10.9824 6.9106 11.0249 7.28402 10.9826C7.65745 10.9403 8.01654 10.8144 8.33458 10.6141C8.65262 10.4139 8.92144 10.1446 9.12102 9.82614M5.32102 3.19814L6.17502 4.05214C6.44865 4.01738 6.7242 4.00001 7.00002 4.00014C9.04402 4.00014 10.286 4.91214 11.028 5.81714C11.4356 6.31756 11.7552 6.88363 11.973 7.49114C11.99 7.53914 12.001 7.57614 12.008 7.60014L12.016 7.62514V7.62814L12.017 7.62914C12.054 7.75394 12.1382 7.85939 12.2518 7.92308C12.3653 7.98677 12.4992 8.00368 12.6249 7.97021C12.7507 7.93675 12.8585 7.85554 12.9254 7.74386C12.9923 7.63218 13.0129 7.49883 12.983 7.37214V7.36914L12.982 7.36514L12.978 7.35214C12.9607 7.28898 12.9407 7.22659 12.918 7.16514C12.6614 6.44563 12.2836 5.7753 11.801 5.18314C10.905 4.08914 9.39602 3.00014 7.00202 3.00014C6.38402 3.00014 5.82502 3.07114 5.32102 3.19814Z" fill="#B7B9BB"/>
</svg>
