<svg width="20" height="20" viewBox="0 0 20 20" fill="none" xmlns="http://www.w3.org/2000/svg">
<path d="M9.99992 0.833496C4.93992 0.833496 0.833252 4.94016 0.833252 10.0002C0.833252 15.0602 4.93992 19.1668 9.99992 19.1668C15.0599 19.1668 19.1666 15.0602 19.1666 10.0002C19.1666 4.94016 15.0599 0.833496 9.99992 0.833496ZM9.99992 17.3335C5.95742 17.3335 2.66659 14.0427 2.66659 10.0002C2.66659 5.95766 5.95742 2.66683 9.99992 2.66683C14.0424 2.66683 17.3333 5.95766 17.3333 10.0002C17.3333 14.0427 14.0424 17.3335 9.99992 17.3335ZM14.2074 5.9485L8.16658 11.9893L5.79242 9.62433L4.49992 10.9168L8.16658 14.5835L15.4999 7.25016L14.2074 5.9485Z" fill="#09825D"/>
</svg>
