<svg width="14" height="19" viewBox="0 0 14 19" fill="#00397B" xmlns="http://www.w3.org/2000/svg">
<path d="M0 15.77V14.77H1.615V6.845C1.615 5.53833 2.02833 4.38933 2.855 3.398C3.683 2.40733 4.73133 1.79 6 1.546V0H8V1.546C9.26933 1.79 10.3173 2.40767 11.144 3.399C11.9707 4.391 12.384 5.54 12.384 6.846V14.769H14V15.769L0 15.77ZM6.997 18.385C6.55167 18.385 6.17167 18.2267 5.857 17.91C5.54233 17.594 5.385 17.214 5.385 16.77H8.615C8.615 17.2167 8.45667 17.5977 8.14 17.913C7.82267 18.2277 7.44167 18.385 6.997 18.385Z"/>
</svg>
